<svg width="61" height="70" viewBox="0 0 61 70" fill="none" xmlns="http://www.w3.org/2000/svg">
<path d="M61 35.1678C61 31.1268 55.9395 27.2972 48.1808 24.9223C49.9713 17.0145 49.1755 10.723 45.6692 8.70872C44.861 8.23624 43.916 8.01243 42.884 8.01243V10.7852C43.456 10.7852 43.916 10.8971 44.3015 11.1084C45.9925 12.0783 46.7261 15.7711 46.1541 20.5208C46.0173 21.6896 45.7935 22.9205 45.52 24.1763C43.083 23.5795 40.4221 23.1194 37.6245 22.821C35.946 20.5208 34.2053 18.4319 32.4521 16.6042C36.5055 12.8367 40.3102 10.7727 42.8965 10.7727V8C39.4772 8 35.001 10.437 30.4751 14.6645C25.9492 10.4619 21.4731 8.04974 18.0538 8.04974V10.8225C20.6276 10.8225 24.4448 12.874 28.4982 16.6166C26.7574 18.4444 25.0167 20.5208 23.363 22.821C20.553 23.1194 17.8922 23.5795 15.4552 24.1887C15.1692 22.9454 14.9578 21.7393 14.8086 20.583C14.2242 15.8333 14.9454 12.1404 16.6239 11.1582C16.9969 10.9344 17.4819 10.8349 18.0538 10.8349V8.06217C17.0094 8.06217 16.0644 8.28598 15.2438 8.75846C11.7499 10.7727 10.9666 17.0518 12.7695 24.9348C5.03567 27.3221 0 31.1392 0 35.1678C0 39.2087 5.06054 43.0383 12.8192 45.4132C11.0287 53.321 11.8245 59.6125 15.3308 61.6268C16.139 62.0993 17.084 62.3231 18.1284 62.3231C21.5477 62.3231 26.0238 59.8861 30.5497 55.6586C35.0756 59.8612 39.5518 62.2733 42.9711 62.2733C44.0155 62.2733 44.9605 62.0495 45.7811 61.577C49.275 59.5628 50.0583 53.2837 48.2554 45.4007C55.9643 43.0259 61 39.1963 61 35.1678V35.1678ZM44.8112 26.8744C44.3512 28.4784 43.7792 30.1321 43.1327 31.7858C42.6229 30.7911 42.0883 29.7964 41.5039 28.8017C40.9319 27.807 40.3227 26.8371 39.7134 25.8922C41.479 26.1533 43.1824 26.4766 44.8112 26.8744ZM39.1166 40.1164C38.1468 41.7949 37.1521 43.3865 36.1201 44.8661C34.2674 45.0277 32.3899 45.1148 30.5 45.1148C28.6225 45.1148 26.745 45.0277 24.9048 44.8785C23.8728 43.3989 22.8657 41.8198 21.8958 40.1537C20.9509 38.5249 20.0929 36.8712 19.3096 35.2051C20.0805 33.5389 20.9509 31.8728 21.8834 30.244C22.8532 28.5654 23.8479 26.9739 24.8799 25.4943C26.7326 25.3327 28.6101 25.2456 30.5 25.2456C32.3775 25.2456 34.255 25.3327 36.0952 25.4819C37.1272 26.9615 38.1343 28.5406 39.1042 30.2067C40.0491 31.8355 40.9071 33.4892 41.6904 35.1553C40.9071 36.8214 40.0491 38.4876 39.1166 40.1164ZM43.1327 38.5C43.8041 40.1661 44.3761 41.8322 44.8486 43.4486C43.2197 43.8465 41.5039 44.1822 39.7258 44.4433C40.3351 43.4859 40.9444 42.5037 41.5163 41.4965C42.0883 40.5018 42.6229 39.4947 43.1327 38.5ZM30.5249 51.7668C29.3685 50.5732 28.2122 49.2428 27.0683 47.788C28.1873 47.8377 29.3312 47.8751 30.4876 47.8751C31.6563 47.8751 32.8127 47.8502 33.9442 47.788C32.8251 49.2428 31.6688 50.5732 30.5249 51.7668ZM21.2742 44.4433C19.5086 44.1822 17.8051 43.8589 16.1763 43.4611C16.6364 41.8571 17.2083 40.2034 17.8549 38.5497C18.3647 39.5444 18.8993 40.5391 19.4837 41.5338C20.0681 42.5285 20.6649 43.4984 21.2742 44.4433ZM30.4627 18.5687C31.619 19.7623 32.7754 21.0927 33.9193 22.5475C32.8002 22.4978 31.6563 22.4605 30.5 22.4605C29.3312 22.4605 28.1749 22.4853 27.0434 22.5475C28.1625 21.0927 29.3188 19.7623 30.4627 18.5687ZM21.2617 25.8922C20.6525 26.8496 20.0432 27.8318 19.4713 28.839C18.8993 29.8337 18.3647 30.8284 17.8549 31.8231C17.1834 30.157 16.6115 28.4908 16.139 26.8744C17.7678 26.489 19.4837 26.1533 21.2617 25.8922V25.8922ZM10.0092 41.4592C5.60763 39.5817 2.76029 37.1199 2.76029 35.1678C2.76029 33.2157 5.60763 30.7413 10.0092 28.8763C11.0785 28.4162 12.2472 28.0059 13.4533 27.6205C14.162 30.0575 15.0946 32.594 16.2509 35.1926C15.107 37.7788 14.1869 40.3029 13.4906 42.7275C12.2597 42.342 11.0909 41.9193 10.0092 41.4592ZM16.6985 59.2271C15.0075 58.2572 14.274 54.5644 14.8459 49.8147C14.9827 48.6459 15.2065 47.415 15.48 46.1592C17.917 46.756 20.5779 47.2161 23.3755 47.5145C25.054 49.8147 26.7947 51.9036 28.5479 53.7313C24.4945 57.4988 20.6898 59.5628 18.1035 59.5628C17.544 59.5503 17.0715 59.4384 16.6985 59.2271V59.2271ZM46.1914 49.7525C46.7758 54.5022 46.0546 58.1951 44.3761 59.1773C44.0031 59.4011 43.5181 59.5006 42.9462 59.5006C40.3724 59.5006 36.5552 57.449 32.5018 53.7065C34.2426 51.8787 35.9833 49.8023 37.637 47.502C40.447 47.2036 43.1078 46.7436 45.5448 46.1343C45.8308 47.3901 46.0546 48.5962 46.1914 49.7525V49.7525ZM50.9784 41.4592C49.9091 41.9193 48.7403 42.3296 47.5342 42.715C46.8255 40.278 45.893 37.7415 44.7367 35.1429C45.8806 32.5567 46.8007 30.0326 47.4969 27.608C48.7279 27.9935 49.8967 28.4162 50.9908 28.8763C55.3924 30.7538 58.2397 33.2157 58.2397 35.1678C58.2273 37.1199 55.3799 39.5942 50.9784 41.4592V41.4592Z" fill="#61DAFB"/>
<path d="M30.4875 40.85C33.6257 40.85 36.1697 38.306 36.1697 35.1678C36.1697 32.0296 33.6257 29.4856 30.4875 29.4856C27.3493 29.4856 24.8053 32.0296 24.8053 35.1678C24.8053 38.306 27.3493 40.85 30.4875 40.85Z" fill="#61DAFB"/>
</svg>
