<svg width="36" height="36" viewBox="0 0 36 36" fill="none" xmlns="http://www.w3.org/2000/svg">
<g clip-path="url(#clip0_3931_3169)">
<path d="M12.0039 36C15.3159 36 18.0039 33.312 18.0039 30V24H12.0039C8.69191 24 6.00391 26.688 6.00391 30C6.00391 33.312 8.69191 36 12.0039 36Z" fill="#0ACF83"/>
<path d="M6.00391 18C6.00391 14.688 8.69191 12 12.0039 12H18.0039V24H12.0039C8.69191 24 6.00391 21.312 6.00391 18Z" fill="#A259FF"/>
<path d="M6.00391 6C6.00391 2.688 8.69191 0 12.0039 0H18.0039V12H12.0039C8.69191 12 6.00391 9.312 6.00391 6Z" fill="#F24E1E"/>
<path d="M18.0039 0H24.0039C27.3159 0 30.0039 2.688 30.0039 6C30.0039 9.312 27.3159 12 24.0039 12H18.0039V0Z" fill="#FF7262"/>
<path d="M30.0039 18C30.0039 21.312 27.3159 24 24.0039 24C20.6919 24 18.0039 21.312 18.0039 18C18.0039 14.688 20.6919 12 24.0039 12C27.3159 12 30.0039 14.688 30.0039 18Z" fill="#1ABCFE"/>
</g>
<defs>
<clipPath id="clip0_3931_3169">
<rect width="24.0048" height="36" fill="white" transform="translate(6)"/>
</clipPath>
</defs>
</svg>
