<svg width="60" height="70" viewBox="0 0 60 70" fill="none" xmlns="http://www.w3.org/2000/svg">
<g clip-path="url(#clip0_403_181)">
<path d="M60 5H30.125L1.5975 35H29.9475L30.08 34.865L60 5Z" fill="url(#paint0_linear_403_181)"/>
<path d="M60 65H0H60ZM30.08 34.865L29.9475 35H30.215L30.08 34.865Z" fill="url(#paint1_linear_403_181)"/>
<path d="M30.125 5H0V36.68V35H1.5975L30.125 5Z" fill="url(#paint2_linear_403_181)"/>
<path d="M29.9475 35H1.5975L0 36.68V65L29.9475 35Z" fill="url(#paint3_linear_403_181)"/>
<path d="M30.215 35H29.9475L0 65H60L30.215 35Z" fill="url(#paint4_linear_403_181)"/>
<path d="M1.5975 35H0V36.68L1.5975 35Z" fill="url(#paint5_linear_403_181)"/>
</g>
<defs>
<linearGradient id="paint0_linear_403_181" x1="-10.7088" y1="59.8317" x2="45.1244" y2="3.99859" gradientUnits="userSpaceOnUse">
<stop stop-color="#C757BC"/>
<stop offset="0.108" stop-color="#C757BC"/>
<stop offset="0.173" stop-color="#CD5CA9"/>
<stop offset="0.492" stop-color="#E8744F"/>
<stop offset="0.716" stop-color="#F88316"/>
<stop offset="0.823" stop-color="#FF8900"/>
<stop offset="1" stop-color="#FF8900"/>
</linearGradient>
<linearGradient id="paint1_linear_403_181" x1="19.3823" y1="75.8078" x2="46.5964" y2="48.5937" gradientUnits="userSpaceOnUse">
<stop stop-color="#00AFFF"/>
<stop offset="0.296" stop-color="#00AFFF"/>
<stop offset="0.694" stop-color="#5282FF"/>
<stop offset="1" stop-color="#945DFF"/>
</linearGradient>
<linearGradient id="paint2_linear_403_181" x1="-0.632795" y1="21.5817" x2="18.4582" y2="2.49022" gradientUnits="userSpaceOnUse">
<stop stop-color="#00AFFF"/>
<stop offset="0.296" stop-color="#00AFFF"/>
<stop offset="0.694" stop-color="#5282FF"/>
<stop offset="1" stop-color="#945DFF"/>
</linearGradient>
<linearGradient id="paint3_linear_403_181" x1="-10.3738" y1="60.1667" x2="45.4594" y2="4.33359" gradientUnits="userSpaceOnUse">
<stop stop-color="#AD4CA4"/>
<stop offset="0.108" stop-color="#AD4CA4"/>
<stop offset="0.173" stop-color="#B25093"/>
<stop offset="0.492" stop-color="#CA6545"/>
<stop offset="0.716" stop-color="#D87213"/>
<stop offset="0.823" stop-color="#DE7700"/>
<stop offset="1" stop-color="#DE7700"/>
</linearGradient>
<linearGradient id="paint4_linear_403_181" x1="19.3823" y1="75.8078" x2="46.5964" y2="48.5937" gradientUnits="userSpaceOnUse">
<stop stop-color="#0098DE"/>
<stop offset="0.296" stop-color="#0098DE"/>
<stop offset="0.694" stop-color="#4771DE"/>
<stop offset="1" stop-color="#8151DE"/>
</linearGradient>
<linearGradient id="paint5_linear_403_181" x1="6.87017" y1="29.0845" x2="25.9612" y2="9.99299" gradientUnits="userSpaceOnUse">
<stop stop-color="#0098DE"/>
<stop offset="0.296" stop-color="#0098DE"/>
<stop offset="0.694" stop-color="#4771DE"/>
<stop offset="1" stop-color="#8151DE"/>
</linearGradient>
<clipPath id="clip0_403_181">
<rect width="60" height="60" fill="white" transform="translate(0 5)"/>
</clipPath>
</defs>
</svg>
