<svg width="1417" height="601" viewBox="0 0 1417 601" fill="none" xmlns="http://www.w3.org/2000/svg">
<rect x="-23" width="1440" height="601" fill="#FFF9EA"/>
<path d="M-23 491.114C-23 491.114 -0.937972 508.43 13.9364 509.966C36.1594 512.261 47.9046 490.218 70.1999 491.114C88.8739 491.865 98.3626 516.144 117.015 514.841C131.597 513.822 148.797 489.122 153.092 491.114C157.387 493.107 156.528 499.352 153.092 507.945C149.656 516.537 131.319 527.438 117.015 527.983C98.521 528.687 88.7029 507.815 70.1999 507.945C47.7762 508.102 36.2967 527.119 13.9364 525.13C-0.939852 523.807 -23 509.966 -23 509.966V491.114Z" fill="#FFAC4B"/>
<path d="M-23 528.114C-23 528.114 -0.937972 545.43 13.9364 546.966C36.1594 549.261 47.9046 527.218 70.1999 528.114C88.8739 528.865 98.3626 553.144 117.015 551.841C131.597 550.822 148.797 526.122 153.092 528.114C157.387 530.107 156.528 536.352 153.092 544.945C149.656 553.537 131.319 564.438 117.015 564.983C98.521 565.687 88.7029 544.815 70.1999 544.945C47.7762 545.102 36.2967 564.119 13.9364 562.13C-0.939852 560.807 -23 546.966 -23 546.966V528.114Z" fill="#FFAC4B"/>
<circle cx="731.5" cy="483.5" r="20.5" fill="#FFAC4B"/>
<circle cx="1234" cy="286" r="37" fill="#FFAC4B"/>
<circle cx="840.5" cy="258.5" r="9.5" fill="#FFAC4B"/>
<circle cx="814" cy="79" r="27" fill="#FFAC4B"/>
</svg>
