<svg width="22" height="21" viewBox="0 0 22 21" fill="none" xmlns="http://www.w3.org/2000/svg">
<path d="M18.9547 5.05921L12.906 0.827223C11.2573 -0.32791 8.72648 -0.264903 7.14082 0.963739L1.87972 5.06971C0.829596 5.88881 0 7.569 0 8.8921V16.1379C0 18.8157 2.17375 21 4.85156 21H16.1718C18.8496 21 21.0234 18.8262 21.0234 16.1484V9.02862C21.0234 7.61101 20.1098 5.86781 18.9547 5.05921ZM11.2993 16.7995C11.2993 17.2301 10.9422 17.5871 10.5117 17.5871C10.0811 17.5871 9.72409 17.2301 9.72409 16.7995V13.6492C9.72409 13.2186 10.0811 12.8616 10.5117 12.8616C10.9422 12.8616 11.2993 13.2186 11.2993 13.6492V16.7995Z" fill="white"/>
</svg>
