<svg width="22" height="21" viewBox="0 0 22 21" fill="none" xmlns="http://www.w3.org/2000/svg">
<path d="M7.39146 0C4.64031 0 2.40369 2.23662 2.40369 4.98777C2.40369 7.68642 4.5143 9.87054 7.26545 9.96505C7.34946 9.95455 7.43346 9.95455 7.49647 9.96505H7.54897H7.56997C10.2581 9.87054 12.3687 7.68642 12.3792 4.98777C12.3792 2.23662 10.1426 0 7.39146 0Z" fill="white"/>
<path d="M12.7267 12.7571C9.797 10.804 5.01928 10.804 2.06861 12.7571C0.73504 13.6496 0 14.8572 0 16.1488C0 17.4403 0.73504 18.6374 2.05811 19.5194C3.52819 20.5065 5.4603 21 7.39241 21C9.32447 21 11.2566 20.5065 12.7267 19.5194C14.0497 18.6269 14.7848 17.4298 14.7848 16.1278C14.7743 14.8362 14.0497 13.6391 12.7267 12.7571Z" fill="white"/>
<path d="M18.9309 5.60535C19.0989 7.64247 17.6499 9.42751 15.6443 9.66903C15.6338 9.66903 15.6337 9.66903 15.6232 9.66903H15.5917C15.5287 9.66903 15.4657 9.66903 15.4132 9.69003C14.3947 9.74253 13.4601 9.41701 12.7566 8.81848C13.8382 7.85248 14.4577 6.4034 14.3317 4.82831C14.2582 3.97776 13.9642 3.20072 13.5231 2.53918C13.9222 2.33967 14.3842 2.21367 14.8567 2.17166C16.9148 1.99315 18.7524 3.52624 18.9309 5.60535Z" fill="white"/>
<path d="M21.0299 15.3208C20.9459 16.3393 20.2948 17.2214 19.2028 17.8199C18.1527 18.3974 16.8296 18.6704 15.5171 18.6389C16.2731 17.9564 16.7141 17.1059 16.7981 16.2028C16.9031 14.9007 16.2836 13.6512 15.0445 12.6536C14.341 12.0971 13.5219 11.6561 12.6294 11.3305C14.95 10.6585 17.8692 11.11 19.6648 12.5591C20.6308 13.3361 21.1244 14.3127 21.0299 15.3208Z" fill="white"/>
</svg>
