<svg width="18" height="20" viewBox="0 0 18 20" fill="none" xmlns="http://www.w3.org/2000/svg">
<path d="M0.243838 6.53659C1.26823 2.02927 5.19994 0 8.65359 0C8.65359 0 8.65359 0 8.66335 0C12.1073 0 16.0487 2.01951 17.0731 6.52683C18.2146 11.561 15.1317 15.8244 12.3414 18.5073C11.3073 19.5024 9.98042 20 8.65359 20C7.32676 20 5.99994 19.5024 4.97554 18.5073C2.1853 15.8244 -0.897625 11.5707 0.243838 6.53659ZM8.65359 11.4244C10.3512 11.4244 11.7268 10.0488 11.7268 8.35122C11.7268 6.65366 10.3512 5.27805 8.65359 5.27805C6.95603 5.27805 5.58042 6.65366 5.58042 8.35122C5.58042 10.0488 6.95603 11.4244 8.65359 11.4244Z" fill="#292D32"/>
</svg>
