<svg width="21" height="22" viewBox="0 0 21 22" fill="none" xmlns="http://www.w3.org/2000/svg">
<path opacity="0.4" d="M7.35242 5.46325V15.5388C7.35242 18.9113 9.45367 21.0125 12.8157 21.0125H15.5368C18.8988 21.0125 21 18.9113 21 15.5493V5.46325C21.0106 2.10125 18.9093 0 15.5473 0H12.8157C9.45367 0 7.35242 2.10125 7.35242 5.46325Z" fill="white"/>
<path d="M3.74811 6.42986L0.228511 9.94943C-0.0761704 10.2541 -0.0761704 10.7584 0.228511 11.0631L3.74811 14.5827C4.05279 14.8874 4.55709 14.8874 4.86177 14.5827C5.16645 14.278 5.16645 13.7737 4.86177 13.469L2.68698 11.2942H13.9182C14.349 11.2942 14.7062 10.937 14.7062 10.5063C14.7062 10.0755 14.349 9.71829 13.9182 9.71829H2.68698L4.86177 7.54352C5.01936 7.38593 5.09291 7.18631 5.09291 6.98669C5.09291 6.78707 5.01936 6.57694 4.86177 6.42986C4.55709 6.11467 4.0633 6.11467 3.74811 6.42986Z" fill="white"/>
</svg>
