<svg width="20" height="21" viewBox="0 0 20 21" fill="none" xmlns="http://www.w3.org/2000/svg">
<path d="M14.772 20.927C15.7238 20.927 16.4954 20.1554 16.4954 19.2036C16.4954 18.2518 15.7238 17.4802 14.772 17.4802C13.8202 17.4802 13.0486 18.2518 13.0486 19.2036C13.0486 20.1554 13.8202 20.927 14.772 20.927Z" fill="white"/>
<path d="M6.89369 20.927C7.8455 20.927 8.61709 20.1554 8.61709 19.2036C8.61709 18.2518 7.8455 17.4802 6.89369 17.4802C5.94188 17.4802 5.17029 18.2518 5.17029 19.2036C5.17029 20.1554 5.94188 20.927 6.89369 20.927Z" fill="white"/>
<path d="M3.53544 2.64912L3.33848 5.06188C3.29909 5.52474 3.66346 5.90881 4.12632 5.90881H19.2036C19.6173 5.90881 19.9619 5.59367 19.9915 5.18006C20.1195 3.43696 18.79 2.01884 17.0469 2.01884H4.94371C4.84522 1.58553 4.64826 1.17191 4.34298 0.827233C3.85058 0.305289 3.16121 0 2.45216 0H0.738601C0.334833 0 0 0.334833 0 0.738601C0 1.14237 0.334833 1.4772 0.738601 1.4772H2.45216C2.75745 1.4772 3.04304 1.60523 3.24985 1.82188C3.45665 2.04839 3.55513 2.34383 3.53544 2.64912Z" fill="white"/>
<path d="M18.9674 7.386H3.86052C3.44691 7.386 3.11207 7.70114 3.07268 8.10491L2.71815 12.3888C2.58028 14.0728 3.89991 15.5106 5.58393 15.5106H16.535C18.0122 15.5106 19.3121 14.2993 19.4204 12.8221L19.7454 8.22308C19.7848 7.77007 19.4303 7.386 18.9674 7.386Z" fill="white"/>
</svg>
