<svg width="22" height="23" viewBox="0 0 22 23" fill="none" xmlns="http://www.w3.org/2000/svg">
<path d="M1.81885 6.71121L11.0891 12.076L20.2965 6.74268" stroke="white" stroke-width="1.5" stroke-linecap="round" stroke-linejoin="round"/>
<path d="M11.0892 21.5878V12.0655" stroke="white" stroke-width="1.5" stroke-linecap="round" stroke-linejoin="round"/>
<path d="M8.91599 1.50394L3.3097 4.62208C2.03936 5.32549 1 7.08925 1 8.53807V14.4698C1 15.9186 2.03936 17.6824 3.3097 18.3858L8.91599 21.5039C10.1128 22.1654 12.0761 22.1654 13.273 21.5039L18.8793 18.3858C20.1496 17.6824 21.189 15.9186 21.189 14.4698V8.53807C21.189 7.08925 20.1496 5.32549 18.8793 4.62208L13.273 1.50394C12.0656 0.832021 10.1128 0.832021 8.91599 1.50394Z" stroke="white" stroke-width="1.5" stroke-linecap="round" stroke-linejoin="round"/>
<path d="M16.3386 12.8005V8.95803L6.37537 3.20471" stroke="white" stroke-width="1.5" stroke-linecap="round" stroke-linejoin="round"/>
</svg>
